<svg width="1043" height="331" viewBox="0 0 1043 331" fill="none" xmlns="http://www.w3.org/2000/svg">
<path d="M28.752 166.312C28.752 156.328 30.912 147.448 35.232 139.672C39.552 131.8 45.552 125.704 53.232 121.384C61.008 116.968 69.792 114.76 79.584 114.76C91.584 114.76 101.856 117.928 110.4 124.264C118.944 130.6 124.656 139.24 127.536 150.184H100.464C98.448 145.96 95.568 142.744 91.824 140.536C88.176 138.328 84 137.224 79.296 137.224C71.712 137.224 65.568 139.864 60.864 145.144C56.16 150.424 53.808 157.48 53.808 166.312C53.808 175.144 56.16 182.2 60.864 187.48C65.568 192.76 71.712 195.4 79.296 195.4C84 195.4 88.176 194.296 91.824 192.088C95.568 189.88 98.448 186.664 100.464 182.44H127.536C124.656 193.384 118.944 202.024 110.4 208.36C101.856 214.6 91.584 217.72 79.584 217.72C69.792 217.72 61.008 215.56 53.232 211.24C45.552 206.824 39.552 200.728 35.232 192.952C30.912 185.176 28.752 176.296 28.752 166.312ZM167.24 150.04C170.12 145.624 173.72 142.168 178.04 139.672C182.36 137.08 187.16 135.784 192.44 135.784V161.848H185.672C179.528 161.848 174.92 163.192 171.848 165.88C168.776 168.472 167.24 173.08 167.24 179.704V217H142.616V136.648H167.24V150.04ZM216.593 128.296C212.273 128.296 208.721 127.048 205.937 124.552C203.249 121.96 201.905 118.792 201.905 115.048C201.905 111.208 203.249 108.04 205.937 105.544C208.721 102.952 212.273 101.656 216.593 101.656C220.817 101.656 224.273 102.952 226.961 105.544C229.745 108.04 231.137 111.208 231.137 115.048C231.137 118.792 229.745 121.96 226.961 124.552C224.273 127.048 220.817 128.296 216.593 128.296ZM228.833 136.648V217H204.209V136.648H228.833ZM295.638 135.784C305.046 135.784 312.534 138.856 318.102 145C323.766 151.048 326.598 159.4 326.598 170.056V217H302.118V173.368C302.118 167.992 300.726 163.816 297.942 160.84C295.158 157.864 291.414 156.376 286.71 156.376C282.006 156.376 278.262 157.864 275.478 160.84C272.694 163.816 271.302 167.992 271.302 173.368V217H246.678V136.648H271.302V147.304C273.798 143.752 277.158 140.968 281.382 138.952C285.606 136.84 290.358 135.784 295.638 135.784ZM374.237 135.496C379.901 135.496 384.845 136.648 389.069 138.952C393.389 141.256 396.701 144.28 399.005 148.024V136.648H423.629V216.856C423.629 224.248 422.141 230.92 419.165 236.872C416.285 242.92 411.821 247.72 405.773 251.272C399.821 254.824 392.381 256.6 383.453 256.6C371.549 256.6 361.901 253.768 354.509 248.104C347.117 242.536 342.893 234.952 341.837 225.352H366.173C366.941 228.424 368.765 230.824 371.645 232.552C374.525 234.376 378.077 235.288 382.301 235.288C387.389 235.288 391.421 233.8 394.397 230.824C397.469 227.944 399.005 223.288 399.005 216.856V205.48C396.605 209.224 393.293 212.296 389.069 214.696C384.845 217 379.901 218.152 374.237 218.152C367.613 218.152 361.613 216.472 356.237 213.112C350.861 209.656 346.589 204.808 343.421 198.568C340.349 192.232 338.813 184.936 338.813 176.68C338.813 168.424 340.349 161.176 343.421 154.936C346.589 148.696 350.861 143.896 356.237 140.536C361.613 137.176 367.613 135.496 374.237 135.496ZM399.005 176.824C399.005 170.68 397.277 165.832 393.821 162.28C390.461 158.728 386.333 156.952 381.437 156.952C376.541 156.952 372.365 158.728 368.909 162.28C365.549 165.736 363.869 170.536 363.869 176.68C363.869 182.824 365.549 187.72 368.909 191.368C372.365 194.92 376.541 196.696 381.437 196.696C386.333 196.696 390.461 194.92 393.821 191.368C397.277 187.816 399.005 182.968 399.005 176.824ZM466.068 110.44V217H441.444V110.44H466.068ZM559.656 175.528C559.656 177.832 559.512 180.232 559.224 182.728H503.496C503.88 187.72 505.464 191.56 508.248 194.248C511.128 196.84 514.632 198.136 518.76 198.136C524.904 198.136 529.176 195.544 531.576 190.36H557.784C556.44 195.64 553.992 200.392 550.44 204.616C546.984 208.84 542.616 212.152 537.336 214.552C532.056 216.952 526.152 218.152 519.624 218.152C511.752 218.152 504.744 216.472 498.6 213.112C492.456 209.752 487.656 204.952 484.2 198.712C480.744 192.472 479.016 185.176 479.016 176.824C479.016 168.472 480.696 161.176 484.056 154.936C487.512 148.696 492.312 143.896 498.456 140.536C504.6 137.176 511.656 135.496 519.624 135.496C527.4 135.496 534.312 137.128 540.36 140.392C546.408 143.656 551.112 148.312 554.472 154.36C557.928 160.408 559.656 167.464 559.656 175.528ZM534.456 169.048C534.456 164.824 533.016 161.464 530.136 158.968C527.256 156.472 523.656 155.224 519.336 155.224C515.208 155.224 511.704 156.424 508.824 158.824C506.04 161.224 504.312 164.632 503.64 169.048H534.456ZM668.97 115.912V135.64H627.786V156.952H658.602V176.104H627.786V217H603.162V115.912H668.97ZM706.536 150.04C709.416 145.624 713.016 142.168 717.336 139.672C721.656 137.08 726.456 135.784 731.736 135.784V161.848H724.968C718.824 161.848 714.216 163.192 711.144 165.88C708.072 168.472 706.536 173.08 706.536 179.704V217H681.912V136.648H706.536V150.04ZM780.082 218.152C772.21 218.152 765.106 216.472 758.77 213.112C752.53 209.752 747.586 204.952 743.938 198.712C740.386 192.472 738.61 185.176 738.61 176.824C738.61 168.568 740.434 161.32 744.082 155.08C747.73 148.744 752.722 143.896 759.058 140.536C765.394 137.176 772.498 135.496 780.37 135.496C788.242 135.496 795.346 137.176 801.682 140.536C808.018 143.896 813.01 148.744 816.658 155.08C820.306 161.32 822.13 168.568 822.13 176.824C822.13 185.08 820.258 192.376 816.514 198.712C812.866 204.952 807.826 209.752 801.394 213.112C795.058 216.472 787.954 218.152 780.082 218.152ZM780.082 196.84C784.786 196.84 788.77 195.112 792.034 191.656C795.394 188.2 797.074 183.256 797.074 176.824C797.074 170.392 795.442 165.448 792.178 161.992C789.01 158.536 785.074 156.808 780.37 156.808C775.57 156.808 771.586 158.536 768.418 161.992C765.25 165.352 763.666 170.296 763.666 176.824C763.666 183.256 765.202 188.2 768.274 191.656C771.442 195.112 775.378 196.84 780.082 196.84ZM865.722 135.496C871.386 135.496 876.33 136.648 880.554 138.952C884.874 141.256 888.186 144.28 890.49 148.024V136.648H915.114V216.856C915.114 224.248 913.626 230.92 910.65 236.872C907.77 242.92 903.306 247.72 897.258 251.272C891.306 254.824 883.866 256.6 874.938 256.6C863.034 256.6 853.386 253.768 845.994 248.104C838.602 242.536 834.378 234.952 833.322 225.352H857.658C858.426 228.424 860.25 230.824 863.13 232.552C866.01 234.376 869.562 235.288 873.786 235.288C878.874 235.288 882.906 233.8 885.882 230.824C888.954 227.944 890.49 223.288 890.49 216.856V205.48C888.09 209.224 884.778 212.296 880.554 214.696C876.33 217 871.386 218.152 865.722 218.152C859.098 218.152 853.098 216.472 847.722 213.112C842.346 209.656 838.074 204.808 834.906 198.568C831.834 192.232 830.298 184.936 830.298 176.68C830.298 168.424 831.834 161.176 834.906 154.936C838.074 148.696 842.346 143.896 847.722 140.536C853.098 137.176 859.098 135.496 865.722 135.496ZM890.49 176.824C890.49 170.68 888.762 165.832 885.306 162.28C881.946 158.728 877.818 156.952 872.922 156.952C868.026 156.952 863.85 158.728 860.394 162.28C857.034 165.736 855.354 170.536 855.354 176.68C855.354 182.824 857.034 187.72 860.394 191.368C863.85 194.92 868.026 196.696 872.922 196.696C877.818 196.696 881.946 194.92 885.306 191.368C888.762 187.816 890.49 182.968 890.49 176.824ZM965.616 218.152C958.608 218.152 952.368 216.952 946.896 214.552C941.424 212.152 937.104 208.888 933.936 204.76C930.768 200.536 928.992 195.832 928.608 190.648H952.944C953.232 193.432 954.528 195.688 956.832 197.416C959.136 199.144 961.968 200.008 965.328 200.008C968.4 200.008 970.752 199.432 972.384 198.28C974.112 197.032 974.976 195.448 974.976 193.528C974.976 191.224 973.776 189.544 971.376 188.488C968.976 187.336 965.088 186.088 959.712 184.744C953.952 183.4 949.152 182.008 945.312 180.568C941.472 179.032 938.16 176.68 935.376 173.512C932.592 170.248 931.2 165.88 931.2 160.408C931.2 155.8 932.448 151.624 934.944 147.88C937.536 144.04 941.28 141.016 946.176 138.808C951.168 136.6 957.072 135.496 963.888 135.496C973.968 135.496 981.888 137.992 987.648 142.984C993.504 147.976 996.864 154.6 997.728 162.856H974.976C974.592 160.072 973.344 157.864 971.232 156.232C969.216 154.6 966.528 153.784 963.168 153.784C960.288 153.784 958.08 154.36 956.544 155.512C955.008 156.568 954.24 158.056 954.24 159.976C954.24 162.28 955.44 164.008 957.84 165.16C960.336 166.312 964.176 167.464 969.36 168.616C975.312 170.152 980.16 171.688 983.904 173.224C987.648 174.664 990.912 177.064 993.696 180.424C996.576 183.688 998.064 188.104 998.16 193.672C998.16 198.376 996.816 202.6 994.128 206.344C991.536 209.992 987.744 212.872 982.752 214.984C977.856 217.096 972.144 218.152 965.616 218.152Z" fill="url(#paint0_linear_0_1)"/>
<defs>
<linearGradient id="paint0_linear_0_1" x1="-3.5" y1="155.5" x2="952" y2="179" gradientUnits="userSpaceOnUse">
<stop stop-color="#CEFFCD"/>
<stop offset="1" stop-color="#69FF66"/>
</linearGradient>
</defs>
</svg>
