<svg width="1023" height="1023" viewBox="0 0 1023 1023" fill="none" xmlns="http://www.w3.org/2000/svg">
<rect x="448" y="352" width="32" height="32" fill="#103E0F"/>
<rect x="416" y="352" width="32" height="32" fill="#103E0F"/>
<rect x="544" y="352" width="32" height="32" fill="#103E0F"/>
<rect x="576" y="352" width="32" height="32" fill="#103E0F"/>
<rect x="608" y="352" width="32" height="32" fill="#103E0F"/>
<rect x="640" y="352" width="32" height="32" fill="#103E0F"/>
<rect x="672" y="352" width="32" height="32" fill="#103E0F"/>
<rect x="704" y="352" width="32" height="32" fill="#103E0F"/>
<rect x="704" y="320" width="32" height="32" fill="#103E0F"/>
<rect x="704" y="288" width="32" height="32" fill="#103E0F"/>
<rect x="736" y="288" width="32" height="32" fill="#103E0F"/>
<rect x="768" y="288" width="32" height="32" fill="#103E0F"/>
<rect x="800" y="288" width="32" height="32" fill="#103E0F"/>
<rect x="832" y="288" width="32" height="32" fill="#103E0F"/>
<rect x="832" y="320" width="32" height="32" fill="#103E0F"/>
<rect x="832" y="352" width="32" height="32" fill="#103E0F"/>
<rect x="832" y="384" width="32" height="32" fill="#103E0F"/>
<rect x="832" y="416" width="32" height="32" fill="#103E0F"/>
<rect x="864" y="416" width="32" height="32" fill="#103E0F"/>
<rect x="864" y="448" width="32" height="32" fill="#103E0F"/>
<rect x="864" y="480" width="32" height="32" fill="#103E0F"/>
<rect x="864" y="512" width="32" height="32" fill="#103E0F"/>
<rect x="864" y="544" width="32" height="32" fill="#103E0F"/>
<rect x="864" y="576" width="32" height="32" fill="#103E0F"/>
<rect x="864" y="608" width="32" height="32" fill="#103E0F"/>
<rect x="832" y="640" width="32" height="32" fill="#103E0F"/>
<rect x="800" y="640" width="32" height="32" fill="#103E0F"/>
<rect x="768" y="640" width="32" height="32" fill="#103E0F"/>
<rect x="736" y="672" width="32" height="32" fill="#103E0F"/>
<rect x="704" y="704" width="32" height="32" fill="#103E0F"/>
<rect x="864" y="490" width="32" height="32" fill="#103E0F"/>
<rect x="704" y="320" width="32" height="32" fill="#103E0F"/>
<rect x="352" y="352" width="32" height="32" fill="#103E0F"/>
<rect x="320" y="352" width="32" height="32" fill="#103E0F"/>
<rect x="320" y="320" width="32" height="32" fill="#103E0F"/>
<rect x="320" y="288" width="32" height="32" fill="#103E0F"/>
<rect x="288" y="288" width="32" height="32" fill="#103E0F"/>
<rect x="256" y="288" width="32" height="32" fill="#103E0F"/>
<rect x="224" y="288" width="32" height="32" fill="#103E0F"/>
<rect x="192" y="288" width="32" height="32" fill="#103E0F"/>
<rect x="192" y="320" width="32" height="32" fill="#103E0F"/>
<rect x="192" y="352" width="32" height="32" fill="#103E0F"/>
<rect x="192" y="384" width="32" height="32" fill="#103E0F"/>
<rect x="192" y="416" width="32" height="32" fill="#103E0F"/>
<rect x="160" y="416" width="32" height="32" fill="#103E0F"/>
<rect x="160" y="448" width="32" height="32" fill="#103E0F"/>
<rect x="160" y="480" width="32" height="32" fill="#103E0F"/>
<rect x="160" y="512" width="32" height="32" fill="#103E0F"/>
<rect x="160" y="544" width="32" height="32" fill="#103E0F"/>
<rect x="160" y="576" width="32" height="32" fill="#103E0F"/>
<rect x="160" y="608" width="32" height="32" fill="#103E0F"/>
<rect x="192" y="640" width="32" height="32" fill="#103E0F"/>
<rect x="224" y="640" width="32" height="32" fill="#103E0F"/>
<rect x="256" y="640" width="32" height="32" fill="#103E0F"/>
<rect x="288" y="672" width="32" height="32" fill="#103E0F"/>
<rect x="322" y="704" width="32" height="32" fill="#103E0F"/>
<rect x="354" y="704" width="32" height="32" fill="#103E0F"/>
<rect x="384" y="576" width="32" height="32" fill="#103E0F"/>
<rect x="416" y="576" width="32" height="32" fill="#103E0F"/>
<rect x="448" y="576" width="32" height="32" fill="#103E0F"/>
<rect x="448" y="480" width="32" height="32" fill="#103E0F"/>
<rect x="480" y="576" width="32" height="32" fill="#103E0F"/>
<rect x="512" y="576" width="32" height="32" fill="#103E0F"/>
<rect x="544" y="576" width="32" height="32" fill="#103E0F"/>
<rect x="576" y="576" width="32" height="32" fill="#103E0F"/>
<rect x="576" y="480" width="32" height="32" fill="#103E0F"/>
<rect x="672" y="480" width="32" height="32" fill="#196F17"/>
<rect x="704" y="480" width="32" height="32" fill="#196F17"/>
<rect x="736" y="480" width="32" height="32" fill="#196F17"/>
<rect x="672" y="512" width="32" height="32" fill="#196F17"/>
<rect x="704" y="512" width="32" height="32" fill="#196F17"/>
<rect x="608" y="480" width="32" height="32" fill="#196F17"/>
<rect x="640" y="480" width="32" height="32" fill="#196F17"/>
<rect x="608" y="512" width="32" height="32" fill="#196F17"/>
<rect x="640" y="512" width="32" height="32" fill="#196F17"/>
<rect x="736" y="512" width="32" height="32" fill="#196F17"/>
<rect x="768" y="480" width="32" height="32" fill="#196F17"/>
<rect x="800" y="480" width="32" height="32" fill="#196F17"/>
<rect x="832" y="480" width="32" height="32" fill="#196F17"/>
<rect x="672" y="448" width="32" height="32" fill="#196F17"/>
<rect x="704" y="448" width="32" height="32" fill="#196F17"/>
<rect x="736" y="448" width="32" height="32" fill="#196F17"/>
<rect x="608" y="448" width="32" height="32" fill="#196F17"/>
<rect x="640" y="448" width="32" height="32" fill="#196F17"/>
<rect x="672" y="416" width="32" height="32" fill="#196F17"/>
<rect x="704" y="416" width="32" height="32" fill="#196F17"/>
<rect x="608" y="416" width="32" height="32" fill="#196F17"/>
<rect x="640" y="416" width="32" height="32" fill="#196F17"/>
<rect x="672" y="384" width="32" height="32" fill="#196F17"/>
<rect x="704" y="384" width="32" height="32" fill="#196F17"/>
<rect x="608" y="384" width="32" height="32" fill="#196F17"/>
<rect x="640" y="384" width="32" height="32" fill="#196F17"/>
<rect x="544" y="416" width="32" height="32" fill="#196F17"/>
<rect x="576" y="416" width="32" height="32" fill="#196F17"/>
<rect x="576" y="448" width="32" height="32" fill="#196F17"/>
<rect x="480" y="416" width="32" height="32" fill="#196F17"/>
<rect x="512" y="416" width="32" height="32" fill="#196F17"/>
<rect x="544" y="384" width="32" height="32" fill="#196F17"/>
<rect x="576" y="384" width="32" height="32" fill="#196F17"/>
<rect x="480" y="384" width="32" height="32" fill="#196F17"/>
<rect x="512" y="384" width="32" height="32" fill="#196F17"/>
<rect x="416" y="416" width="32" height="32" fill="#196F17"/>
<rect x="448" y="416" width="32" height="32" fill="#196F17"/>
<rect x="544" y="448" width="32" height="32" fill="#196F17"/>
<rect x="480" y="448" width="32" height="32" fill="#196F17"/>
<rect x="480" y="480" width="32" height="32" fill="#196F17"/>
<rect x="512" y="480" width="32" height="32" fill="#196F17"/>
<rect x="544" y="480" width="32" height="32" fill="#196F17"/>
<rect x="512" y="448" width="32" height="32" fill="#196F17"/>
<rect x="448" y="448" width="32" height="32" fill="#196F17"/>
<rect x="352" y="416" width="32" height="32" fill="#196F17"/>
<rect x="322" y="416" width="32" height="32" fill="#196F17"/>
<rect x="384" y="416" width="32" height="32" fill="#196F17"/>
<rect x="416" y="384" width="32" height="32" fill="#196F17"/>
<rect x="448" y="384" width="32" height="32" fill="#196F17"/>
<rect x="352" y="384" width="32" height="32" fill="#196F17"/>
<rect x="322" y="384" width="32" height="32" fill="#196F17"/>
<rect x="384" y="384" width="32" height="32" fill="#196F17"/>
<rect x="352" y="544" width="32" height="32" fill="#196F17"/>
<rect x="352" y="512" width="32" height="32" fill="#196F17"/>
<rect x="288" y="544" width="32" height="32" fill="#196F17"/>
<rect x="320" y="544" width="32" height="32" fill="#196F17"/>
<rect x="224" y="544" width="32" height="32" fill="#196F17"/>
<rect x="192" y="544" width="32" height="32" fill="#196F17"/>
<rect x="256" y="544" width="32" height="32" fill="#196F17"/>
<rect x="288" y="512" width="32" height="32" fill="#196F17"/>
<rect x="320" y="512" width="32" height="32" fill="#196F17"/>
<rect x="224" y="512" width="32" height="32" fill="#196F17"/>
<rect x="192" y="512" width="32" height="32" fill="#196F17"/>
<rect x="192" y="512" width="32" height="32" fill="#196F17"/>
<rect x="256" y="512" width="32" height="32" fill="#196F17"/>
<rect x="512" y="544" width="32" height="32" fill="#196F17"/>
<rect x="544" y="544" width="32" height="32" fill="#196F17"/>
<rect x="576" y="544" width="32" height="32" fill="#196F17"/>
<rect x="512" y="512" width="32" height="32" fill="#196F17"/>
<rect x="544" y="512" width="32" height="32" fill="#196F17"/>
<rect x="576" y="512" width="32" height="32" fill="#196F17"/>
<rect x="448" y="544" width="32" height="32" fill="#196F17"/>
<rect x="480" y="544" width="32" height="32" fill="#196F17"/>
<rect x="384" y="544" width="32" height="32" fill="#196F17"/>
<rect x="416" y="544" width="32" height="32" fill="#196F17"/>
<rect x="448" y="512" width="32" height="32" fill="#196F17"/>
<rect x="480" y="512" width="32" height="32" fill="#196F17"/>
<rect x="384" y="512" width="32" height="32" fill="#196F17"/>
<rect x="416" y="512" width="32" height="32" fill="#196F17"/>
<rect x="352" y="480" width="32" height="32" fill="#196F17"/>
<rect x="288" y="480" width="32" height="32" fill="#196F17"/>
<rect x="320" y="480" width="32" height="32" fill="#196F17"/>
<rect x="224" y="480" width="32" height="32" fill="#196F17"/>
<rect x="192" y="480" width="32" height="32" fill="#196F17"/>
<rect x="192" y="480" width="32" height="32" fill="#196F17"/>
<rect x="256" y="480" width="32" height="32" fill="#196F17"/>
<rect x="384" y="480" width="32" height="32" fill="#196F17"/>
<rect x="416" y="480" width="32" height="32" fill="#196F17"/>
<rect x="352" y="448" width="32" height="32" fill="#196F17"/>
<rect x="288" y="448" width="32" height="32" fill="#196F17"/>
<rect x="320" y="448" width="32" height="32" fill="#196F17"/>
<rect x="224" y="448" width="32" height="32" fill="#196F17"/>
<rect x="192" y="448" width="32" height="32" fill="#196F17"/>
<rect x="192" y="448" width="32" height="32" fill="#196F17"/>
<rect x="256" y="448" width="32" height="32" fill="#196F17"/>
<rect x="384" y="448" width="32" height="32" fill="#196F17"/>
<rect x="416" y="448" width="32" height="32" fill="#196F17"/>
<rect x="768" y="448" width="32" height="32" fill="#196F17"/>
<rect x="800" y="448" width="32" height="32" fill="#196F17"/>
<rect x="832" y="448" width="32" height="32" fill="#196F17"/>
<rect x="768" y="512" width="32" height="32" fill="#196F17"/>
<rect x="800" y="512" width="32" height="32" fill="#196F17"/>
<rect x="832" y="512" width="32" height="32" fill="#196F17"/>
<rect x="672" y="544" width="32" height="32" fill="#196F17"/>
<rect x="704" y="544" width="32" height="32" fill="#196F17"/>
<rect x="608" y="544" width="32" height="32" fill="#196F17"/>
<rect x="640" y="544" width="32" height="32" fill="#196F17"/>
<rect x="736" y="544" width="32" height="32" fill="#196F17"/>
<rect x="768" y="544" width="32" height="32" fill="#196F17"/>
<rect x="800" y="544" width="32" height="32" fill="#196F17"/>
<rect x="832" y="544" width="32" height="32" fill="#196F17"/>
<rect x="736" y="384" width="32" height="32" fill="#1A1F1A"/>
<rect x="736" y="416" width="32" height="32" fill="#1A1F1A"/>
<rect x="768" y="384" width="32" height="32" fill="#1A1F1A"/>
<rect x="768" y="416" width="32" height="32" fill="#1A1F1A"/>
<rect x="800" y="416" width="32" height="32" fill="#F4F4F4"/>
<rect x="800" y="384" width="32" height="32" fill="#F4F4F4"/>
<rect x="800" y="352" width="32" height="32" fill="#F4F4F4"/>
<rect x="800" y="320" width="32" height="32" fill="#F4F4F4"/>
<rect x="768" y="320" width="32" height="32" fill="#F4F4F4"/>
<rect x="736" y="320" width="32" height="32" fill="#F4F4F4"/>
<rect x="736" y="352" width="32" height="32" fill="#F4F4F4"/>
<rect x="288" y="352" width="32" height="32" fill="#F4F4F4"/>
<rect x="288" y="320" width="32" height="32" fill="#F4F4F4"/>
<rect x="256" y="320" width="32" height="32" fill="#F4F4F4"/>
<rect x="224" y="320" width="32" height="32" fill="#F4F4F4"/>
<rect x="224" y="352" width="32" height="32" fill="#F4F4F4"/>
<rect x="224" y="384" width="32" height="32" fill="#F4F4F4"/>
<rect x="224" y="416" width="32" height="32" fill="#F4F4F4"/>
<rect x="256" y="352" width="32" height="32" fill="#F4F4F4"/>
<rect x="768" y="352" width="32" height="32" fill="#F4F4F4"/>
<rect x="258" y="384" width="32" height="32" fill="#1A1F1A"/>
<rect x="258" y="416" width="32" height="32" fill="#1A1F1A"/>
<rect x="290" y="384" width="32" height="32" fill="#1A1F1A"/>
<rect x="290" y="416" width="32" height="32" fill="#1A1F1A"/>
<rect x="608" y="576" width="32" height="32" fill="#103E0F"/>
<rect x="640" y="576" width="32" height="32" fill="#103E0F"/>
<rect x="672" y="576" width="32" height="32" fill="#97C996"/>
<rect x="672" y="608" width="32" height="32" fill="#97C996"/>
<rect x="640" y="608" width="32" height="32" fill="#97C996"/>
<rect x="608" y="608" width="32" height="32" fill="#97C996"/>
<rect x="576" y="608" width="32" height="32" fill="#97C996"/>
<rect x="544" y="608" width="32" height="32" fill="#97C996"/>
<rect x="512" y="608" width="32" height="32" fill="#97C996"/>
<rect x="480" y="608" width="32" height="32" fill="#97C996"/>
<rect x="448" y="608" width="32" height="32" fill="#97C996"/>
<rect x="480" y="640" width="32" height="32" fill="#97C996"/>
<rect x="448" y="640" width="32" height="32" fill="#97C996"/>
<rect x="480" y="672" width="32" height="32" fill="#97C996"/>
<rect x="448" y="672" width="32" height="32" fill="#97C996"/>
<rect x="352" y="608" width="32" height="32" fill="#97C996"/>
<rect x="352" y="576" width="32" height="32" fill="#97C996"/>
<rect x="320" y="576" width="32" height="32" fill="#97C996"/>
<rect x="288" y="576" width="32" height="32" fill="#97C996"/>
<rect x="256" y="576" width="32" height="32" fill="#97C996"/>
<rect x="224" y="576" width="32" height="32" fill="#97C996"/>
<rect x="192" y="576" width="32" height="32" fill="#97C996"/>
<rect x="320" y="608" width="32" height="32" fill="#97C996"/>
<rect x="288" y="608" width="32" height="32" fill="#97C996"/>
<rect x="256" y="608" width="32" height="32" fill="#97C996"/>
<rect x="224" y="608" width="32" height="32" fill="#97C996"/>
<rect x="192" y="608" width="32" height="32" fill="#97C996"/>
<rect x="288" y="640" width="32" height="32" fill="#97C996"/>
<rect x="352" y="640" width="32" height="32" fill="#97C996"/>
<rect x="320" y="640" width="32" height="32" fill="#97C996"/>
<rect x="352" y="672" width="32" height="32" fill="#97C996"/>
<rect x="320" y="672" width="32" height="32" fill="#97C996"/>
<rect x="416" y="608" width="32" height="32" fill="#97C996"/>
<rect x="384" y="608" width="32" height="32" fill="#97C996"/>
<rect x="416" y="640" width="32" height="32" fill="#97C996"/>
<rect x="384" y="640" width="32" height="32" fill="#97C996"/>
<rect x="416" y="672" width="32" height="32" fill="#97C996"/>
<rect x="384" y="672" width="32" height="32" fill="#97C996"/>
<rect x="512" y="640" width="32" height="32" fill="#97C996"/>
<rect x="512" y="672" width="32" height="32" fill="#97C996"/>
<rect x="544" y="640" width="32" height="32" fill="#97C996"/>
<rect x="544" y="672" width="32" height="32" fill="#97C996"/>
<rect x="576" y="640" width="32" height="32" fill="#97C996"/>
<rect x="576" y="672" width="32" height="32" fill="#97C996"/>
<rect x="608" y="640" width="32" height="32" fill="#97C996"/>
<rect x="608" y="672" width="32" height="32" fill="#97C996"/>
<rect x="640" y="640" width="32" height="32" fill="#97C996"/>
<rect x="640" y="672" width="32" height="32" fill="#97C996"/>
<rect x="672" y="640" width="32" height="32" fill="#97C996"/>
<rect x="672" y="672" width="32" height="32" fill="#97C996"/>
<rect x="704" y="640" width="32" height="32" fill="#97C996"/>
<rect x="704" y="672" width="32" height="32" fill="#97C996"/>
<rect x="736" y="640" width="32" height="32" fill="#97C996"/>
<rect x="704" y="608" width="32" height="32" fill="#97C996"/>
<rect x="736" y="608" width="32" height="32" fill="#97C996"/>
<rect x="768" y="608" width="32" height="32" fill="#97C996"/>
<rect x="800" y="608" width="32" height="32" fill="#97C996"/>
<rect x="832" y="608" width="32" height="32" fill="#97C996"/>
<rect x="704" y="576" width="32" height="32" fill="#97C996"/>
<rect x="736" y="576" width="32" height="32" fill="#97C996"/>
<rect x="768" y="576" width="32" height="32" fill="#97C996"/>
<rect x="800" y="576" width="32" height="32" fill="#97C996"/>
<rect x="832" y="576" width="32" height="32" fill="#97C996"/>
<rect x="386" y="704" width="32" height="32" fill="#103E0F"/>
<rect x="418" y="704" width="32" height="32" fill="#103E0F"/>
<rect x="450" y="704" width="32" height="32" fill="#103E0F"/>
<rect x="481" y="704" width="32" height="32" fill="#103E0F"/>
<rect x="513" y="704" width="32" height="32" fill="#103E0F"/>
<rect x="544" y="704" width="32" height="32" fill="#103E0F"/>
<rect x="576" y="704" width="32" height="32" fill="#103E0F"/>
<rect x="608" y="704" width="32" height="32" fill="#103E0F"/>
<rect x="640" y="704" width="32" height="32" fill="#103E0F"/>
<rect x="672" y="704" width="32" height="32" fill="#103E0F"/>
<rect x="384" y="352" width="32" height="32" fill="#103E0F"/>
<rect x="480" y="352" width="32" height="32" fill="#103E0F"/>
<rect x="512" y="352" width="32" height="32" fill="#103E0F"/>
</svg>
